<svg xmlns="http://www.w3.org/2000/svg" width="96" height="96" viewBox="0 0 96 96" fill="none">
  <title>Geophysical site survey</title>
  <desc>A surveying instrument and ground probe above a cutaway of the site's underground layers.</desc>
  <defs>
    <linearGradient id="bg" x1="8" y1="0" x2="90" y2="96" gradientUnits="userSpaceOnUse"><stop stop-color="#FFF1F4"/><stop offset="1" stop-color="#F3DDE6"/></linearGradient>
    <linearGradient id="earth" x1="16" y1="60" x2="52" y2="87" gradientUnits="userSpaceOnUse"><stop stop-color="#DEAB8D"/><stop offset="1" stop-color="#BC816A"/></linearGradient>
    <linearGradient id="instrument" x1="42" y1="24" x2="61" y2="43" gradientUnits="userSpaceOnUse"><stop stop-color="#F29F79"/><stop offset="1" stop-color="#C96754"/></linearGradient>
  </defs>
  <rect width="96" height="96" rx="18" fill="url(#bg)"/>
  <ellipse cx="49" cy="83" rx="35" ry="7" fill="#AD6882" opacity=".1"/>
  <path d="M12 55L43 38L85 56L54 75Z" fill="#B8D4B0"/>
  <path d="M12 55L54 75V87L12 67Z" fill="url(#earth)"/>
  <path d="M54 75L85 56V68L54 87Z" fill="#A67064"/>
  <path d="M12 55L54 75L85 56V60L54 79L12 59Z" fill="#7FA287"/>
  <path d="M13 64C24 65 28 77 39 76C45 76 49 83 54 83L84 65" stroke="#E8BD9E" stroke-width="2"/>
  <path d="M18 65L21 67M33 76L36 77M62 80L66 78M77 71L80 69" stroke="#875F59" stroke-width="1.4" stroke-linecap="round"/>
  <path d="M22 54C29 48 40 46 49 50C59 54 63 61 74 60" stroke="#DCEAD1" stroke-width="1.6"/>
  <path d="M29 61C38 56 43 58 47 61" stroke="#DCEAD1" stroke-width="1.6"/>
  <path d="M23 49V58" stroke="#4C6C6E" stroke-width="2.5" stroke-linecap="round"/>
  <path d="M20 49L23 47L26 49L23 51Z" fill="#F5D88E"/>
  <path d="M23 56C23 65 35 60 42 61C48 62 46 50 51 44" stroke="#687F77" stroke-width="1.4" stroke-linecap="round"/>
  <path d="M52 41L34 66M54 42L57 72M57 41L71 60" stroke="#6E5769" stroke-width="4.5" stroke-linecap="round"/>
  <path d="M52 43L39 60M54 43L56 62M58 44L67 55" stroke="#E5B06C" stroke-width="3.5" stroke-linecap="round"/>
  <path d="M47 39L54 35L62 39L55 44Z" fill="#646071"/>
  <path d="M47 39L55 44V47L47 42Z" fill="#454759"/>
  <path d="M42 25L55 19L67 25L53 32Z" fill="#FFC2A2"/>
  <path d="M42 25L53 32V43L42 37Z" fill="url(#instrument)"/>
  <path d="M53 32L67 25V37L53 43Z" fill="#A9564E"/>
  <path d="M47 26V20Q47 17 50 16L57 13Q60 12 60 15V20" stroke="#9E5553" stroke-width="3.5" stroke-linecap="round"/>
  <path d="M45 29L50 32V36L45 33Z" fill="#E9EECD"/>
  <path d="M59 28L68 23C73 22 77 32 72 35L64 40C59 42 54 31 59 28Z" fill="#4F5265"/>
  <ellipse cx="69.5" cy="29" rx="5" ry="6.5" transform="rotate(-28 69.5 29)" fill="#303E52"/>
  <ellipse cx="70" cy="29" rx="3" ry="4.2" transform="rotate(-28 70 29)" fill="#73B8C5"/>
  <path d="M69 26C70 25.5 71.5 27 72 28.5" stroke="#C6EDF0" stroke-width="1.2" stroke-linecap="round"/>
</svg>
