<svg xmlns="http://www.w3.org/2000/svg" width="96" height="96" viewBox="0 0 96 96" fill="none">
  <title>Publicity and administration</title>
  <desc>A coral megaphone beside an event-planning sheet and pencil.</desc>
  <defs>
    <linearGradient id="bg" x1="12" y1="0" x2="84" y2="96" gradientUnits="userSpaceOnUse"><stop stop-color="#FFF3EE"/><stop offset="1" stop-color="#F5DAD2"/></linearGradient>
    <linearGradient id="paper" x1="46" y1="37" x2="76" y2="81" gradientUnits="userSpaceOnUse"><stop stop-color="#FFFEF8"/><stop offset="1" stop-color="#F1E7D6"/></linearGradient>
    <linearGradient id="horn" x1="29" y1="26" x2="58" y2="58" gradientUnits="userSpaceOnUse"><stop stop-color="#FFA284"/><stop offset="1" stop-color="#CB6251"/></linearGradient>
    <linearGradient id="rim" x1="48" y1="18" x2="64" y2="51" gradientUnits="userSpaceOnUse"><stop stop-color="#E88569"/><stop offset="1" stop-color="#B74D43"/></linearGradient>
  </defs>
  <rect width="96" height="96" rx="18" fill="url(#bg)"/>
  <ellipse cx="49" cy="80" rx="35" ry="7" fill="#A36E5C" opacity=".12"/>
  <g transform="rotate(10 65 58)">
    <rect x="44" y="34" width="35" height="48" rx="4" fill="#C8B6A0"/>
    <rect x="42" y="31" width="35" height="48" rx="4" fill="url(#paper)"/>
    <path d="M49 41H70" stroke="#CA7962" stroke-width="4" stroke-linecap="round"/>
    <path d="M49 49H67M49 55H70M49 61H63" stroke="#C1BCAC" stroke-width="2" stroke-linecap="round"/>
    <rect x="48" y="67" width="10" height="5" rx="1.5" fill="#89B9AA"/>
  </g>
  <path d="M28 48L36 48L41 67C42 71 36 74 33 70Z" fill="#365F5A"/>
  <path d="M30 53L35 52L39 66" stroke="#72A397" stroke-width="2" stroke-linecap="round"/>
  <path d="M17 40L23 37L29 51L23 54C19 55 13 43 17 40Z" fill="#356C65"/>
  <path d="M23 37L34 33L42 49L29 54C25 55 18 39 23 37Z" fill="#F8F2DC"/>
  <path d="M30 35L48 20L60 49L39 51C36 49 31 40 30 35Z" fill="url(#horn)"/>
  <path d="M31 37L47 25" stroke="#FFBEA4" stroke-width="2" stroke-linecap="round"/>
  <ellipse cx="54" cy="35" rx="9" ry="19" transform="rotate(-23 54 35)" fill="url(#rim)"/>
  <ellipse cx="55" cy="34" rx="5.5" ry="14.5" transform="rotate(-23 55 34)" fill="#793F3E"/>
  <path d="M51 24C54 24 59 34 59 38" stroke="#A65C50" stroke-width="2" stroke-linecap="round"/>
  <g stroke="#C77560" stroke-width="2.5" stroke-linecap="round"><path d="M69 20L76 15M73 30L83 28M73 39L80 43"/></g>
  <path d="M17 74L31 59L35 63L21 78Z" fill="#E4B35C"/>
  <path d="M17 74L15 81L21 78Z" fill="#F6D3AB"/>
  <path d="M15 81L16 77L19 79Z" fill="#56625B"/>
  <path d="M31 59L33 57Q34 56 35 57L37 59Q38 60 37 61L35 63Z" fill="#9BB7AA"/>
</svg>
